<svg width="200" height="60" viewBox="0 0 200 60" fill="none" xmlns="http://www.w3.org/2000/svg">
  <!-- Logo Symbol -->
  <path d="M30 10C41.0457 10 50 18.9543 50 30C50 41.0457 41.0457 50 30 50C18.9543 50 10 41.0457 10 30C10 18.9543 18.9543 10 30 10Z" fill="#0056b3"/>
  <path d="M30 15L42 30L30 45L18 30L30 15Z" fill="white"/>
  <circle cx="30" cy="30" r="5" fill="#28a745"/>
  
  <!-- Logo Text -->
  <path d="M65 22H70.5C71.9 22 73.0833 22.25 74.05 22.75C75.0167 23.25 75.75 23.9333 76.25 24.8C76.75 25.6667 77 26.6333 77 27.7C77 28.7667 76.75 29.7333 76.25 30.6C75.75 31.4667 75.0167 32.15 74.05 32.65C73.0833 33.15 71.9 33.4 70.5 33.4H67.5V40H65V22ZM70.3 31C71.3 31 72.0833 30.7333 72.65 30.2C73.2167 29.6667 73.5 28.8667 73.5 27.8C73.5 26.7333 73.2167 25.9333 72.65 25.4C72.0833 24.8667 71.3 24.6 70.3 24.6H67.5V31H70.3Z" fill="#212529"/>
  <path d="M84 40.2C82.8 40.2 81.7333 39.9333 80.8 39.4C79.8667 38.8667 79.1333 38.1 78.6 37.1C78.0667 36.1 77.8 34.9333 77.8 33.6C77.8 32.2667 78.0667 31.1 78.6 30.1C79.1333 29.1 79.8667 28.3333 80.8 27.8C81.7333 27.2667 82.8 27 84 27C85.2 27 86.2667 27.2667 87.2 27.8C88.1333 28.3333 88.8667 29.1 89.4 30.1C89.9333 31.1 90.2 32.2667 90.2 33.6C90.2 34.9333 89.9333 36.1 89.4 37.1C88.8667 38.1 88.1333 38.8667 87.2 39.4C86.2667 39.9333 85.2 40.2 84 40.2ZM84 37.8C85 37.8 85.8 37.4667 86.4 36.8C87 36.1333 87.3 35.0667 87.3 33.6C87.3 32.1333 87 31.0667 86.4 30.4C85.8 29.7333 85 29.4 84 29.4C83 29.4 82.2 29.7333 81.6 30.4C81 31.0667 80.7 32.1333 80.7 33.6C80.7 35.0667 81 36.1333 81.6 36.8C82.2 37.4667 83 37.8 84 37.8Z" fill="#212529"/>
  <path d="M92.3 22H95.2V40H92.3V22Z" fill="#212529"/>
  <path d="M102.7 40.2C101.5 40.2 100.433 39.9333 99.5 39.4C98.5667 38.8667 97.8333 38.1 97.3 37.1C96.7667 36.1 96.5 34.9333 96.5 33.6C96.5 32.2667 96.7667 31.1 97.3 30.1C97.8333 29.1 98.5667 28.3333 99.5 27.8C100.433 27.2667 101.5 27 102.7 27C103.9 27 104.967 27.2667 105.9 27.8C106.833 28.3333 107.567 29.1 108.1 30.1C108.633 31.1 108.9 32.2667 108.9 33.6C108.9 34.9333 108.633 36.1 108.1 37.1C107.567 38.1 106.833 38.8667 105.9 39.4C104.967 39.9333 103.9 40.2 102.7 40.2ZM102.7 37.8C103.7 37.8 104.5 37.4667 105.1 36.8C105.7 36.1333 106 35.0667 106 33.6C106 32.1333 105.7 31.0667 105.1 30.4C104.5 29.7333 103.7 29.4 102.7 29.4C101.7 29.4 100.9 29.7333 100.3 30.4C99.7 31.0667 99.4 32.1333 99.4 33.6C99.4 35.0667 99.7 36.1333 100.3 36.8C100.9 37.4667 101.7 37.8 102.7 37.8Z" fill="#212529"/>
  <path d="M116.3 27C117.367 27 118.3 27.2333 119.1 27.7C119.9 28.1667 120.517 28.8333 120.95 29.7C121.383 30.5667 121.6 31.6 121.6 32.8V40H118.7V33.3C118.7 32.1 118.45 31.2 117.95 30.6C117.45 30 116.767 29.7 115.9 29.7C115.033 29.7 114.35 30 113.85 30.6C113.35 31.2 113.1 32.1 113.1 33.3V40H110.2V27.2H113.1V28.8C113.5 28.2667 114.017 27.8667 114.65 27.6C115.283 27.2 115.767 27 116.3 27Z" fill="#212529"/>
  <path d="M130.5 40.2C129.3 40.2 128.233 39.9333 127.3 39.4C126.367 38.8667 125.633 38.1 125.1 37.1C124.567 36.1 124.3 34.9333 124.3 33.6C124.3 32.2667 124.567 31.1 125.1 30.1C125.633 29.1 126.367 28.3333 127.3 27.8C128.233 27.2667 129.3 27 130.5 27C131.7 27 132.767 27.2667 133.7 27.8C134.633 28.3333 135.367 29.1 135.9 30.1C136.433 31.1 136.7 32.2667 136.7 33.6C136.7 34.9333 136.433 36.1 135.9 37.1C135.367 38.1 134.633 38.8667 133.7 39.4C132.767 39.9333 131.7 40.2 130.5 40.2ZM130.5 37.8C131.5 37.8 132.3 37.4667 132.9 36.8C133.5 36.1333 133.8 35.0667 133.8 33.6C133.8 32.1333 133.5 31.0667 132.9 30.4C132.3 29.7333 131.5 29.4 130.5 29.4C129.5 29.4 128.7 29.7333 128.1 30.4C127.5 31.0667 127.2 32.1333 127.2 33.6C127.2 35.0667 127.5 36.1333 128.1 36.8C128.7 37.4667 129.5 37.8 130.5 37.8Z" fill="#212529"/>
  <path d="M144.1 27C145.167 27 146.1 27.2333 146.9 27.7C147.7 28.1667 148.317 28.8333 148.75 29.7C149.183 30.5667 149.4 31.6 149.4 32.8V40H146.5V33.3C146.5 32.1 146.25 31.2 145.75 30.6C145.25 30 144.567 29.7 143.7 29.7C142.833 29.7 142.15 30 141.65 30.6C141.15 31.2 140.9 32.1 140.9 33.3V40H138V27.2H140.9V28.8C141.3 28.2667 141.817 27.8667 142.45 27.6C143.083 27.2 143.567 27 144.1 27Z" fill="#212529"/>
  <path d="M160.8 27.2V29.7H154.2V32.5H159.6V35H154.2V40H151.3V27.2H160.8Z" fill="#212529"/>
  <path d="M169.7 27.2H172.6V40H169.7V38.4C169.3 38.9333 168.783 39.3333 168.15 39.6C167.517 39.8667 166.833 40 166.1 40C165 40 164.017 39.7333 163.15 39.2C162.283 38.6667 161.6 37.9 161.1 36.9C160.6 35.9 160.35 34.7667 160.35 33.5C160.35 32.2333 160.6 31.1 161.1 30.1C161.6 29.1 162.283 28.3333 163.15 27.8C164.017 27.2667 165 27 166.1 27C166.833 27 167.517 27.1333 168.15 27.4C168.783 27.6667 169.3 28.0667 169.7 28.6V27.2ZM166.7 37.8C167.7 37.8 168.5 37.4667 169.1 36.8C169.7 36.1333 170 35.1667 170 33.9C170 32.6333 169.7 31.6667 169.1 31C168.5 30.3333 167.7 30 166.7 30C165.7 30 164.9 30.3333 164.3 31C163.7 31.6667 163.4 32.6333 163.4 33.9C163.4 35.1667 163.7 36.1333 164.3 36.8C164.9 37.4667 165.7 37.8 166.7 37.8Z" fill="#212529"/>
  <path d="M181.5 27C183.033 27 184.267 27.4667 185.2 28.4C186.133 29.3333 186.6 30.7 186.6 32.5V40H183.7V33C183.7 31.8 183.45 30.9 182.95 30.3C182.45 29.7 181.767 29.4 180.9 29.4C180.033 29.4 179.35 29.7 178.85 30.3C178.35 30.9 178.1 31.8 178.1 33V40H175.2V22H178.1V28.7C178.5 28.1667 179.017 27.7667 179.65 27.5C180.283 27.1667 180.967 27 181.5 27Z" fill="#212529"/>
  <path d="M190.2 25.6C189.667 25.6 189.217 25.4333 188.85 25.1C188.483 24.7667 188.3 24.3667 188.3 23.9C188.3 23.4333 188.483 23.0333 188.85 22.7C189.217 22.3667 189.667 22.2 190.2 22.2C190.733 22.2 191.183 22.3667 191.55 22.7C191.917 23.0333 192.1 23.4333 192.1 23.9C192.1 24.3667 191.917 24.7667 191.55 25.1C191.183 25.4333 190.733 25.6 190.2 25.6ZM188.75 27.2H191.65V40H188.75V27.2Z" fill="#212529"/>
  <path d="M194.8 27.2H197.7V40H194.8V27.2ZM194.8 22H197.7V25H194.8V22Z" fill="#212529"/>
</svg> 